<?xml version="1.0" encoding="utf-8"?>
<!-- Generator: Adobe Illustrator 23.0.1, SVG Export Plug-In . SVG Version: 6.00 Build 0)  -->
<svg version="1.1" id="Laag_1" xmlns="http://www.w3.org/2000/svg" xmlns:xlink="http://www.w3.org/1999/xlink" x="0px" y="0px"
	 viewBox="0 0 200 200" style="enable-background:new 0 0 200 200;" xml:space="preserve">
<style type="text/css">
	.st0{fill:#D7913D;}
</style>
<path class="st0" d="M122.7,26.7c12.5,13.3,19.8,29.2,33.2,45.8c13.4,16.8,32.9,34.6,37,54.6c4.2,19.9-7.1,42.3-25.9,50.5
	c-18.8,8.3-45.2,2.6-66.4,4.3c-21.3,1.7-37.5,11-54,11c-16.7,0-33.7-9.3-33.3-24.7c0.5-15.4,18.4-37,27.8-50.3s10.3-17.9,9.9-26.1
	c-0.5-8-2.5-19.6,1.2-36.7c3.9-17.3,13.6-40.3,27-46.3C92.7,2.7,110.3,13.3,122.7,26.7z"/>
</svg>
