<?xml version="1.0" encoding="utf-8"?>
<!-- Generator: Adobe Illustrator 23.0.1, SVG Export Plug-In . SVG Version: 6.00 Build 0)  -->
<svg version="1.1" id="Laag_1" xmlns="http://www.w3.org/2000/svg" xmlns:xlink="http://www.w3.org/1999/xlink" x="0px" y="0px"
	 viewBox="0 0 200 200" style="enable-background:new 0 0 200 200;" xml:space="preserve">
<style type="text/css">
	.st0{fill:#E2B0A1;}
</style>
<path class="st0" d="M113.4,57.5c20.1,12,48.2,12.2,64.2,24.1c15.9,12,19.5,35.8,14.2,57c-5.5,21.2-19.8,39.7-37.9,48.7
	c-18.1,8.9-40.1,8.5-58.9,9.5c-18.6,1-33.9,3.6-45-2.1c-10.9-5.9-17.7-20.1-20.5-32.5c-2.8-12.3-1.8-22.9-2.5-32.7
	c-0.9-9.9-3.5-19.1-9.1-39C12,70.6,3.3,40.1,11.6,22.7C19.7,5.4,44.8,1.4,63.2,11.4S93.5,45.5,113.4,57.5z"/>
</svg>
