<?xml version="1.0" encoding="utf-8"?>
<!-- Generator: Adobe Illustrator 23.0.1, SVG Export Plug-In . SVG Version: 6.00 Build 0)  -->
<svg version="1.1" id="Laag_1" xmlns="http://www.w3.org/2000/svg" xmlns:xlink="http://www.w3.org/1999/xlink" x="0px" y="0px"
	 viewBox="0 0 200 200" style="enable-background:new 0 0 200 200;" xml:space="preserve">
<style type="text/css">
	.st0{fill:#E2B0A1;}
</style>
<path class="st0" d="M171.8,7.2c15-3.7,22,25.2,22.7,51.1c0.5,25.7-5.5,48.3-6.4,73.6c-0.8,25.5,3.6,53.3-6.8,58.3
	c-10.3,4.7-35.4-13.4-52.5-16.2c-17.3-2.8-26.3,9.7-36.5,12.3c-10.1,2.8-21.4-4.5-29.3-15.8c-8-11.4-12.7-26.8-25.9-49.8
	C23.6,97.6,1.7,67,6.1,51.5c4.4-15.8,34.9-16.4,56.7-8.6S97.9,67,116,57.1C133.9,46.9,156.8,10.9,171.8,7.2z"/>
</svg>
