<?xml version="1.0" encoding="utf-8"?>
<!-- Generator: Adobe Illustrator 23.0.1, SVG Export Plug-In . SVG Version: 6.00 Build 0)  -->
<svg version="1.1" id="Laag_1" xmlns="http://www.w3.org/2000/svg" xmlns:xlink="http://www.w3.org/1999/xlink" x="0px" y="0px"
	 viewBox="0 0 200 200" style="enable-background:new 0 0 200 200;" xml:space="preserve">
<style type="text/css">
	.st0{fill:#DE7F61;}
</style>
<path class="st0" d="M142.2,21.9c12.5,13.7,15.5,39.7,24.4,62.4c8.9,22.9,23.7,42.3,26.6,63.8c2.8,21.7-6.4,45.3-25,47.2
	c-18.7,2.1-46.8-17.6-62.9-29.8c-16.3-12-20.5-16.4-33.4-10.4c-12.9,6-34.4,22.6-48.6,22.1C9,176.6,1.9,158.9,9.1,145.4
	c7.1-13.5,28.4-23,32.2-45c4-22-9.5-56.4-5.1-74.3C40.8,8.2,62.9,7,85.2,7S129.6,8.2,142.2,21.9z"/>
</svg>
