<?xml version="1.0" encoding="utf-8"?>
<!-- Generator: Adobe Illustrator 23.0.1, SVG Export Plug-In . SVG Version: 6.00 Build 0)  -->
<svg version="1.1" id="Laag_1" xmlns="http://www.w3.org/2000/svg" xmlns:xlink="http://www.w3.org/1999/xlink" x="0px" y="0px"
	 viewBox="0 0 200 200" style="enable-background:new 0 0 200 200;" xml:space="preserve">
<style type="text/css">
	.st0{fill:#D7913D;}
</style>
<path class="st0" d="M163.4,16.4c6,11,1.8,32.2-3.9,46c-5.5,13.9-12.4,20.4-3.6,37.2c8.8,16.7,33.4,43.6,36.6,64.1
	c3.3,20.7-14.7,35.3-32.2,31.7s-34.6-25.3-53.1-34.3c-18.5-9.1-38.7-5.3-58.2-12.1c-19.3-6.6-37.8-24-41.4-44.2
	C4,84.5,15.2,61.4,30.5,46.3c15.3-15.2,34.4-22.2,50.9-28c16.6-5.7,30.4-10,45.3-11.8C141.6,4.7,157.6,5.5,163.4,16.4z"/>
</svg>
