<?xml version="1.0" encoding="utf-8"?>
<!-- Generator: Adobe Illustrator 23.0.1, SVG Export Plug-In . SVG Version: 6.00 Build 0)  -->
<svg version="1.1" id="Laag_1" xmlns="http://www.w3.org/2000/svg" xmlns:xlink="http://www.w3.org/1999/xlink" x="0px" y="0px"
	 viewBox="0 0 200 200" style="enable-background:new 0 0 200 200;" xml:space="preserve">
<style type="text/css">
	.st0{fill:#E2B0A1;}
</style>
<path class="st0" d="M186.1,5.4c12.2,5.2,10.9,26,10.4,41.6c-0.6,15.7-0.6,26.1-1.5,37c-1.1,11-3.5,22.3-7.2,41.8
	s-8.9,47.5-28.2,61.3c-19.5,13.8-53.2,13.7-79.1,3.6c-25.8-9.9-43.5-29.8-57.1-48.1C9.9,124.1,0.6,106.9,12.4,94.3
	c12-12.6,45.4-20.8,61.7-29.4c16.3-8.4,15.9-17.6,21.3-25.1c5.2-7.4,16.5-13.3,34.8-21.3S174,0.2,186.1,5.4z"/>
</svg>
